<?xml version="1.0" encoding="UTF-8"?>
<svg width="80px" height="18px" viewBox="0 0 80 18" version="1.1" xmlns="http://www.w3.org/2000/svg" xmlns:xlink="http://www.w3.org/1999/xlink">
    <title>编组 23</title>
    <g id="主页面" stroke="none" stroke-width="1" fill="none" fill-rule="evenodd">
        <g id="首页" transform="translate(-54.000000, -15.000000)" fill="#FFFFFF">
            <g id="编组-23" transform="translate(54.000000, 15.000000)">
                <path d="M7.19717266,0.224430158 C1.96286527,0.224430158 0,2.95967271 0,8.893045 C0,14.8264173 1.96286527,17.5336061 7.19717266,17.5336061 C12.4172564,17.5336061 14.3516743,14.8123904 14.3516743,8.893045 C14.3516743,2.97369959 12.4172564,0.224430158 7.19717266,0.224430158 Z M7.19717266,13.9286967 C5.3054257,13.9286967 4.494677,13.0029223 4.494677,8.893045 C4.494677,4.78316774 5.3054257,3.82933957 7.19717266,3.82933957 C9.0604723,3.82933957 9.88544466,4.75511397 9.88544466,8.893045 C9.88544466,13.030976 9.0604723,13.9286967 7.19717266,13.9286967 Z" id="形状" fill-rule="nonzero"></path>
                <path d="M35.1557811,0.22518602 C35.9351257,0.227874188 37.8241479,0.237736049 38.0705235,0.254827569 L38.0254062,0.252430158 L38.0294283,3.91849773 C37.6296946,3.85890163 35.4267771,3.83230973 34.922445,3.82957621 L34.8525789,3.82933957 C32.9608319,3.82933957 32.1500832,4.78316774 32.1500832,8.893045 C32.1500832,13.0029223 32.9608319,13.9286967 34.8525789,13.9286967 C35.1816644,13.9286967 37.8050389,13.9006944 38.0705235,13.8317849 L38.0254062,13.8384302 L38.0292586,17.50674 C37.6161638,17.5237 35.4123465,17.5326035 34.9201132,17.5335261 L34.8525789,17.5336061 C29.6182715,17.5336061 27.6554062,14.8264173 27.6554062,8.893045 C27.6554062,2.95967271 29.6182715,0.224430158 34.8525789,0.224430158 L34.8525789,0.224430158 Z" id="形状结合" fill-rule="nonzero"></path>
                <polygon id="矩形" points="38.0261835 13.8400322 41.6912097 13.4283414 43.7521744 17.3933372 38.0261835 17.5043774"></polygon>
                <polygon id="矩形备份-4" points="57.549126 14.4038574 66.7983463 14.4038574 66.7983463 17.8607832 61.6028695 17.912332"></polygon>
                <path d="M46.2982098,5.06370544 C48.3748644,5.06370544 50.4941899,5.80713033 50.4941899,8.31794272 L50.4941899,17.3933372 L46.3408808,17.3933372 L46.3408808,9.03331385 C46.3408808,8.54237288 46.1275259,8.34599649 45.6154741,8.34599649 C45.0465276,8.34599649 44.3211209,8.61250731 43.7521744,9.00526008 L43.7521744,17.3933372 L39.5988653,17.3933372 L39.5988653,0 L43.7521744,0 L43.7521744,5.62478083 L43.7806218,5.62478083 C44.4349102,5.28813559 45.3878955,5.06370544 46.2982098,5.06370544 Z" id="路径" fill-rule="nonzero"></path>
                <g id="编组-10" transform="translate(63.376973, 1.728463)" fill-rule="nonzero">
                    <polygon id="路径备份-5" points="4.15330912 16.1323203 0 16.1323203 -8.94481967e-13 4.60923437 4.15330912 4.60923437"></polygon>
                    <polygon id="路径备份-6" points="4.15330912 3.45692577 0 3.45692577 -8.94481967e-13 1.7666763e-12 4.15330912 1.37763524e-12"></polygon>
                </g>
                <path d="M26.223912,17.9403857 L22.1701685,17.9403857 L22.1701685,9.39801286 C22.1701685,8.893045 21.9710373,8.69666861 21.4589855,8.69666861 C20.9042627,8.69666861 20.1930796,8.97720631 19.6241331,9.36995909 L19.6241331,17.9263589 L15.556166,17.9263589 L15.556166,5.58270018 L18.5289112,5.58270018 L18.7564898,6.36820573 L18.7849371,6.36820573 C19.5956858,5.79310345 20.7904734,5.33021625 22.1132739,5.33021625 C24.1472575,5.33021625 26.223912,6.08766803 26.223912,8.65458796 L26.223912,14.7562829 L26.223912,17.9403857 Z" id="路径" fill-rule="nonzero"></path>
                <path d="M79.604442,17.9403857 L75.5506985,17.9403857 L75.5506985,9.39801286 C75.5506985,8.893045 75.3515672,8.69666861 74.8395154,8.69666861 C74.2847926,8.69666861 73.5736096,8.97720631 73.0046631,9.36995909 L73.0046631,17.9263589 L68.936696,17.9263589 L68.936696,5.58270018 L71.9094412,5.58270018 L72.1370198,6.36820573 L72.1654671,6.36820573 C72.9762158,5.79310345 74.1710033,5.33021625 75.4938039,5.33021625 C77.5277874,5.33021625 79.604442,6.08766803 79.604442,8.65458796 L79.604442,14.7562829 L79.604442,17.9403857 Z" id="路径备份-4" fill-rule="nonzero"></path>
                <path d="M61.6028695,14.7703098 L61.6028695,8.75277615 C61.6028695,6.24196376 59.2132944,5.40035067 56.453904,5.40035067 C55.3444585,5.40035067 53.4953825,5.55464641 51.9734507,5.90531853 L52.129911,9.13150205 C53.8651977,8.78082992 55.657379,8.65458796 56.2689965,8.65458796 C57.0655215,8.65458796 57.506455,8.85096435 57.506455,9.58036236 L57.506455,10.2536528 C55.5862607,10.2536528 53.09712,10.5061368 52.044569,11.5300994 C51.290715,12.2594974 51.0346891,13.2554062 51.0346891,14.2092344 C51.0346891,16.7621274 52.7984231,17.9544126 55.0173142,17.9964933 C55.657379,18.0105202 60.3938583,17.9824664 61.6028695,17.912332 L61.6028695,14.7703098 Z M57.549126,14.6580947 C57.2362054,14.9386324 56.6388116,15.106955 56.2547728,15.106955 C55.4724714,15.106955 55.1168799,14.7001753 55.1168799,13.9006429 C55.1168799,13.7744009 55.1453272,13.395675 55.3729058,13.1712449 C55.7284973,12.8205728 56.5676933,12.792519 57.549126,12.792519 L57.549126,14.6580947 L57.549126,14.6580947 Z" id="形状" fill-rule="nonzero"></path>
            </g>
        </g>
    </g>
</svg>