<?xml version="1.0" standalone="no"?><!DOCTYPE svg PUBLIC "-//W3C//DTD SVG 1.1//EN" "http://www.w3.org/Graphics/SVG/1.1/DTD/svg11.dtd"><svg t="1669700310494" class="icon" viewBox="0 0 1024 1024" version="1.1" xmlns="http://www.w3.org/2000/svg" p-id="3111" xmlns:xlink="http://www.w3.org/1999/xlink" width="200" height="200"><path d="M511.317333 0l425.813334 273.681067 0.443733 178.653866h0.034133v12.3904l-73.591466 47.2064 74.069333 47.581867 0.4096 178.653867H938.564267v12.3904L512.477867 1024 86.152533 750.557867v-191.044267l74.274134-47.752533L85.230933 463.291733V273.7152L511.317333 0zM221.013333 660.923733L95.675733 742.741333v1.501867l412.2624 264.704 0.682667-160.290133-287.607467-187.733334z m582.690134 0.273067l-286.0032 186.5728-0.682667 161.1776 412.501333-265.0112-0.034133-0.580267-0.443733-0.273066-125.3376-81.885867z m-85.367467-55.773867l-206.779733 132.744534-205.7216-132.642134-75.537067 49.322667 282.180267 184.2176 281.941333-183.944533-76.0832-49.698134z m210.705067-26.0096l-115.9168 75.639467 115.9168 75.639467v-151.278934zM95.709867 579.140267l-0.034134 151.2448 115.9168-75.605334-115.882666-75.639466z m343.825066-60.893867L315.255467 599.381333l192 123.869867 0.4096-160.5632-68.130134-44.4416z m144.861867-0.341333l-67.652267 44.202666-0.4096 160.836267 192.546134-123.6992-124.484267-81.339733z m270.097067 0.1024l-126.702934 81.339733 76.049067 49.629867 125.201067-81.681067v-1.4336l-74.5472-47.854933z m-684.578134-0.136534L95.197867 565.8624v0.785067l0.512 0.341333 125.166933 81.7152 75.537067-49.288533-126.498134-81.544534z m135.611734-87.074133L179.438933 511.761067l126.3616 81.544533 124.416-81.169067-124.689066-81.339733z m412.706133-0.238933l-124.484267 81.271466 124.586667 81.339734 126.5664-81.3056-126.6688-81.3056z m-205.994667 40.209066l-63.3856 41.403734 62.941867 41.0624 63.317333-41.403734-62.8736-41.0624z m-4.778666-169.6768l-192.580267 123.665067 124.6208 81.3056 68.642133-44.782933-0.682666-160.187734z m9.079466 0l0.682667 160.768 67.208533 43.895467 124.416-81.2032-192.3072-123.460267z m286.242134 74.274134l-75.093334 49.015466 126.702934 81.373867 74.171733-47.650133v-0.580267l-0.477867-0.273067-125.303466-81.885866z m-582.690134-0.3072L94.72 456.9088v0.2048l75.229867 48.5376 126.088533-81.032533-75.946667-49.5616z m707.9936-81.476267l-115.882666 75.639467 115.882666 75.639466V293.5808zM94.754133 293.307733l-0.034133 151.2448 115.950933-75.639466L94.754133 293.307733z m416.5632-108.373333l-281.941333 184.046933 76.049067 49.595734 206.574933-132.744534 206.336 132.539734 75.1616-49.083734-282.180267-184.32z m4.539734-169.8816l0.443733 161.006933 286.6176 187.0848 125.166933-81.681066v-1.4336L515.857067 15.0528zM506.7776 15.018667L94.242133 280.029867v0.785066l0.512 0.341334 125.201067 81.681066 287.266133-187.392-0.443733-160.426666z" fill="#101926" p-id="3112"></path><path d="M928.5632 458.6496l-412.842667 264.8064v-161.450667l412.3648-268.6976 0.477867 165.341867z m-420.283733 2.901333L95.709867 730.692267l-1.4336-165.341867 413.218133-265.728 0.785067 161.928533z" fill="#101926" p-id="3113"></path></svg>