<?xml version="1.0" standalone="no"?><!DOCTYPE svg PUBLIC "-//W3C//DTD SVG 1.1//EN" "http://www.w3.org/Graphics/SVG/1.1/DTD/svg11.dtd"><svg t="1669365125925" class="icon" viewBox="0 0 4972 1024" version="1.1" xmlns="http://www.w3.org/2000/svg" p-id="16453" xmlns:xlink="http://www.w3.org/1999/xlink" width="971.09375" height="200"><path d="M1174.46466 464.157031c0-25.462763 35.87167-56.161649 61.925608-59.29699 16.120082-1.95299 42.121237 0 56.868948 13.016413 14.758268 13.026969 16.943505 23.224742 16.943506 36.747876v561.848742l255.377154-2.248577V475.484371c0-59.983175 12.393567-140.25633-83.609072-198.297072-121.845443-73.66466-266.408907-13.575918-307.506144 38.289155l7.32635-70.941031-261.964536 0.485608v769.108454l254.638186-0.485609V464.157031z m1509.608247-463.449732v314.769155c41.097237-51.865072 185.660701-111.953814 307.495588-38.289155 96.013196 58.040742 83.619629 138.313897 83.619629 198.297072v538.740124l-255.366598 2.248577V454.62433c0-13.512577-2.195794-23.720907-16.954062-36.73732-14.758268-13.026969-40.748866-14.979959-56.868949-13.026969-26.053938 3.13534-61.925608 33.834227-61.925608 59.29699v549.486845l-254.627629 0.485609-0.010556-0.665073-349.764619 3.441485h-6.30235c-278.316866 0-426.522392-159.321732-426.522392-506.72165C1646.845361 166.246928 1792.105567 6.650722 2065.049072 3.504825l8.318681-0.042227H2100.783505v0.116124c69.674227 0.823423 138.577814 5.721732 206.742433 14.694927v251.196702c-26.961814-3.029773-66.507216-5.816742-118.604536-8.382021a6686.086598 6686.086598 0 0 0-101.059299-4.286021h-3.694845l-2.026887-0.19002c-7.970309-0.263918-15.645031-0.485608-23.024165-0.686186C1962.269031 259.16701 1910.762887 338.363381 1910.762887 504.905897c0 158.266062 46.523381 236.786804 134.27068 246.94235l2.97699 0.316701-0.010557 0.823423 381.434722-0.010557V0.707299h254.638185z m1889.649485 463.439175c0-25.452206 35.87167-56.161649 61.925608-59.286433 16.120082-1.95299 42.121237 0 56.868948 13.016413 14.758268 13.026969 16.943505 23.224742 16.943506 36.747876v561.848742l255.377154-2.248577V475.484371c0-59.983175 12.393567-140.25633-83.609072-198.297072-121.845443-73.66466-266.408907-13.575918-307.506144 38.289155l7.32635-70.941031-261.964536 0.485608v769.108454l254.638186-0.485609V464.157031z m-1383.983505-193.747134c103.339546-14.219876 215.588948-17.904165 336.769319-11.042309 40.590515 1.752412 77.348948 4.560495 98.14565 8.909856 43.345814 9.025979 76.314392 26.180619 98.895175 51.442804 22.580784 25.272742 36.272825 60.035959 41.213361 104.194639 4.634392 41.667299 7.07299 104.859711 7.315794 189.651134v188.162639l151.71035 0.010557v211.13402H3495.429278c-74.78367 0.844536-127.883876 1.287918-159.300618 1.351258h-5.02499l-2.364701 0.010557c-39.091464 0-72.989031-3.905979-101.703258-11.559588-28.650887-7.653608-116.79934-41.382268-116.79934-181.923629 0-151.805361 66.296082-217.172454 124.516289-241.326185 55.496577-23.024165 152.174845-24.100948 161.116371-24.153732h92.244454v-33.348619a38.004124 38.004124 0 0 1-0.063341-2.14301c0-21.715134-12.013526-36.146144-36.051134-43.282474a1025.667959 1025.667959 0 0 0-248.462515 12.583587z m307.886185 442.30466c-102.822268-7.326351-136.044206 24.312082-140.805278 66.369979-4.750515 42.04734 8.656495 86.438268 65.50433 92.371134 38.774763 0 63.868041-10.440577 75.300948-31.311175zM4231.558598 211.134021V0H3923.820206v211.134021h307.727835z m0 801.675876V249.296495H3923.820206v763.566185h307.727835v-0.042226zM426.522392 3.473155C704.828701 3.462598 844.536082 162.763216 844.536082 510.184247c0 347.399918-139.707381 506.721649-418.01369 506.72165C148.205526 1016.905897 0 857.584165 0 510.184247c0-347.421031 148.216082-506.721649 426.522392-506.721649z m2.565278 263.917525c-100.890392 0-154.613443 77.992907-154.613443 248.082475 0 170.07901 53.733608 248.082474 154.613443 248.082474 100.890392 0 151.530887-78.003464 151.530887-248.082474 0-170.089567-50.640495-248.082474-151.530887-248.082475z" fill="#101926" p-id="16454"></path></svg>