<?xml version="1.0" encoding="UTF-8"?>
<svg width="994px" height="395px" viewBox="0 0 994 395" version="1.1" xmlns="http://www.w3.org/2000/svg" xmlns:xlink="http://www.w3.org/1999/xlink">
    <title>编组 107</title>
    <defs>
        <filter x="-26.2%" y="-26.2%" width="152.3%" height="152.3%" filterUnits="objectBoundingBox" id="filter-1">
            <feOffset dx="0" dy="6" in="SourceAlpha" result="shadowOffsetOuter1"></feOffset>
            <feGaussianBlur stdDeviation="5.5" in="shadowOffsetOuter1" result="shadowBlurOuter1"></feGaussianBlur>
            <feColorMatrix values="0 0 0 0 0.790795891   0 0 0 0 0.824580439   0 0 0 0 0.853538624  0 0 0 0.4 0" type="matrix" in="shadowBlurOuter1" result="shadowMatrixOuter1"></feColorMatrix>
            <feMerge>
                <feMergeNode in="shadowMatrixOuter1"></feMergeNode>
                <feMergeNode in="SourceGraphic"></feMergeNode>
            </feMerge>
        </filter>
        <rect id="path-2" x="0" y="25" width="108" height="104" rx="5"></rect>
        <filter x="-20.8%" y="-21.6%" width="141.7%" height="143.3%" filterUnits="objectBoundingBox" id="filter-3">
            <feOffset dx="0" dy="0" in="SourceAlpha" result="shadowOffsetOuter1"></feOffset>
            <feGaussianBlur stdDeviation="7.5" in="shadowOffsetOuter1" result="shadowBlurOuter1"></feGaussianBlur>
            <feComposite in="shadowBlurOuter1" in2="SourceAlpha" operator="out" result="shadowBlurOuter1"></feComposite>
            <feColorMatrix values="0 0 0 0 0.802938864   0 0 0 0 0.832488487   0 0 0 0 0.876812921  0 0 0 0.282976911 0" type="matrix" in="shadowBlurOuter1"></feColorMatrix>
        </filter>
        <rect id="path-4" x="0" y="25" width="108" height="104" rx="5"></rect>
        <filter x="-20.8%" y="-21.6%" width="141.7%" height="143.3%" filterUnits="objectBoundingBox" id="filter-5">
            <feOffset dx="0" dy="0" in="SourceAlpha" result="shadowOffsetOuter1"></feOffset>
            <feGaussianBlur stdDeviation="7.5" in="shadowOffsetOuter1" result="shadowBlurOuter1"></feGaussianBlur>
            <feComposite in="shadowBlurOuter1" in2="SourceAlpha" operator="out" result="shadowBlurOuter1"></feComposite>
            <feColorMatrix values="0 0 0 0 0.802938864   0 0 0 0 0.832488487   0 0 0 0 0.876812921  0 0 0 0.282976911 0" type="matrix" in="shadowBlurOuter1"></feColorMatrix>
        </filter>
        <rect id="path-6" x="0" y="25" width="108" height="104" rx="5"></rect>
        <filter x="-20.8%" y="-21.6%" width="141.7%" height="143.3%" filterUnits="objectBoundingBox" id="filter-7">
            <feOffset dx="0" dy="0" in="SourceAlpha" result="shadowOffsetOuter1"></feOffset>
            <feGaussianBlur stdDeviation="7.5" in="shadowOffsetOuter1" result="shadowBlurOuter1"></feGaussianBlur>
            <feComposite in="shadowBlurOuter1" in2="SourceAlpha" operator="out" result="shadowBlurOuter1"></feComposite>
            <feColorMatrix values="0 0 0 0 0.802938864   0 0 0 0 0.832488487   0 0 0 0 0.876812921  0 0 0 0.282976911 0" type="matrix" in="shadowBlurOuter1"></feColorMatrix>
        </filter>
        <rect id="path-8" x="0" y="25" width="133" height="104" rx="5"></rect>
        <filter x="-16.9%" y="-21.6%" width="133.8%" height="143.3%" filterUnits="objectBoundingBox" id="filter-9">
            <feOffset dx="0" dy="0" in="SourceAlpha" result="shadowOffsetOuter1"></feOffset>
            <feGaussianBlur stdDeviation="7.5" in="shadowOffsetOuter1" result="shadowBlurOuter1"></feGaussianBlur>
            <feComposite in="shadowBlurOuter1" in2="SourceAlpha" operator="out" result="shadowBlurOuter1"></feComposite>
            <feColorMatrix values="0 0 0 0 0.802938864   0 0 0 0 0.832488487   0 0 0 0 0.876812921  0 0 0 0.282976911 0" type="matrix" in="shadowBlurOuter1"></feColorMatrix>
        </filter>
        <rect id="path-10" x="0" y="25" width="108" height="104" rx="5"></rect>
        <filter x="-20.8%" y="-21.6%" width="141.7%" height="143.3%" filterUnits="objectBoundingBox" id="filter-11">
            <feOffset dx="0" dy="0" in="SourceAlpha" result="shadowOffsetOuter1"></feOffset>
            <feGaussianBlur stdDeviation="7.5" in="shadowOffsetOuter1" result="shadowBlurOuter1"></feGaussianBlur>
            <feComposite in="shadowBlurOuter1" in2="SourceAlpha" operator="out" result="shadowBlurOuter1"></feComposite>
            <feColorMatrix values="0 0 0 0 0.802938864   0 0 0 0 0.832488487   0 0 0 0 0.876812921  0 0 0 0.282976911 0" type="matrix" in="shadowBlurOuter1"></feColorMatrix>
        </filter>
        <filter x="-26.2%" y="-26.2%" width="152.3%" height="152.3%" filterUnits="objectBoundingBox" id="filter-12">
            <feOffset dx="0" dy="6" in="SourceAlpha" result="shadowOffsetOuter1"></feOffset>
            <feGaussianBlur stdDeviation="5.5" in="shadowOffsetOuter1" result="shadowBlurOuter1"></feGaussianBlur>
            <feColorMatrix values="0 0 0 0 0.790795891   0 0 0 0 0.824580439   0 0 0 0 0.853538624  0 0 0 0.4 0" type="matrix" in="shadowBlurOuter1" result="shadowMatrixOuter1"></feColorMatrix>
            <feMerge>
                <feMergeNode in="shadowMatrixOuter1"></feMergeNode>
                <feMergeNode in="SourceGraphic"></feMergeNode>
            </feMerge>
        </filter>
    </defs>
    <g id="秽土转生1920" stroke="none" stroke-width="1" fill="none" fill-rule="evenodd">
        <g id="编组-107" transform="translate(25.000000, 25.000000)">
            <g id="1920/产品/插图备份" transform="translate(219.000000, 19.000000)">
                <path d="M131.368738,3.66425595 C129.472638,1.35636011 126.538747,0.00297664984 123.426376,0 L0,0 L30.7105987,39.5646374 C32.8844454,42.3646727 32.9075074,46.2541618 30.7677524,49.0799947 L0,90 L125.193128,89.9196305 C127.187492,89.9196305 129.066546,89.0415188 130.262763,87.549225 L161.961018,48.0084008 C163.665603,45.8810884 163.647554,42.9540493 161.915897,40.8465813 L131.368738,3.66425595 Z" id="Fill-1" stroke="#FFFFFF" stroke-width="4" fill="#EFF3F9"></path>
                <text id="Analysis" font-family="PingFangSC-Regular, PingFang SC" font-size="12" font-weight="normal" fill="#475569">
                    <tspan x="59.368" y="28.0003">Analysis</tspan>
                </text>
                <g id="图标/git" transform="translate(67.000000, 46.000300)">
                    <g id="tongji" transform="translate(0.000000, 0.000000)" fill="#A7B3C5" fill-rule="nonzero">
                        <path d="M26.1945032,3.72621564 L26.1310782,3.72621564 C23.9429175,1.53805497 21.0412262,0.206131078 17.94926,0 L17.94926,12.3678647 L30,12.3678647 C29.8731501,9.11733615 28.5095137,6.02536998 26.1945032,3.72621564 Z M15.7293869,0.253699789 L14.8255814,0.253699789 C6.64376321,0.253699789 0,6.88160677 0,15.0634249 C0,23.2610994 6.64376321,29.8891219 14.8255814,29.8891219 C22.9281184,29.9207188 29.5401691,23.4196617 29.6511628,15.3171247 L29.6511628,14.4133192 L15.7293869,14.4133192 L15.7293869,0.253699789 Z M27.7801268,16.3002114 C27.5105708,19.3921776 26.1469345,22.3097252 23.9112051,24.4820296 L23.8477801,24.4820296 C21.4376321,26.8446089 18.2029598,28.1606765 14.8255814,28.1606765 C7.62684989,28.1606765 1.80761099,22.3414376 1.80761099,15.1427061 C1.76004228,8.29281184 7.07188161,2.56871036 13.9217759,2.12473573 L13.9217759,16.3002114 L27.7801268,16.3002114 Z" id="形状"></path>
                    </g>
                    <rect id="矩形" x="0" y="0" width="30" height="30"></rect>
                </g>
            </g>
            <g id="1920/产品/插图备份-5" transform="translate(88.000000, 19.000000)">
                <path d="M131.368738,3.66425595 C129.472638,1.35636011 126.538747,0.00297664984 123.426376,0 L0,0 L30.7105987,39.5646374 C32.8844454,42.3646727 32.9075074,46.2541618 30.7677524,49.0799947 L0,90 L125.193128,89.9196305 C127.187492,89.9196305 129.066546,89.0415188 130.262763,87.549225 L161.961018,48.0084008 C163.665603,45.8810884 163.647554,42.9540493 161.915897,40.8465813 L131.368738,3.66425595 Z" id="Fill-1" stroke="#FFFFFF" stroke-width="4" fill="#EFF3F9"></path>
                <text id="Innovation" font-family="PingFangSC-Regular, PingFang SC" font-size="12" font-weight="normal" fill="#475569">
                    <tspan x="53.572" y="28.0003">Innovation</tspan>
                </text>
                <g id="图标/git" transform="translate(67.000000, 46.000300)">
                    <g id="linggan" transform="translate(0.750000, 0.000000)" fill="#A7B3C5" fill-rule="nonzero">
                        <path d="M4.16788855,13.3944281 L4.16788855,13.3944281 C4.16788855,12.9545455 4.20087975,12.5146627 4.2558651,12.0967742 L0.934750722,12.0967742 C0.417888541,12.0967742 0,12.5036657 0,13.0095308 C0,13.5153959 0.417888573,13.9222874 0.934750722,13.9222874 L4.17888561,13.9222874 C4.16788855,13.7463343 4.16788855,13.5703812 4.16788855,13.3944281 L4.16788855,13.3944281 Z M4.10190614,21.4222874 L4.10190614,21.4222874 C3.73900292,21.7851906 3.73900292,22.3570381 4.10190614,22.7199413 C4.46480937,23.0718475 5.05865101,23.0718475 5.42155424,22.7199413 L7.1260997,21.0483871 C6.74120233,20.6195015 6.33431085,20.1466276 5.96041056,19.6077712 L4.10190614,21.4222874 L4.10190614,21.4222874 Z M6.46627566,6.90615837 L6.46627566,6.90615837 C6.85117303,6.4222874 7.28005866,5.98240471 7.75293255,5.57551322 L5.43255129,3.29912023 C5.06964807,2.93621701 4.47580643,2.93621701 4.1129032,3.29912023 C3.74999998,3.6510264 3.74999998,4.23387095 4.1129032,4.59677418 L6.46627566,6.90615837 L6.46627566,6.90615837 Z M16.3856305,28.2514663 L11.6348973,28.2514663 C11.1400293,28.2514663 10.7441349,28.6473607 10.7441349,29.1202346 C10.7441349,29.6041056 11.1400293,30 11.6348973,30 L16.3856305,30 C16.8804985,30 17.2763929,29.6041056 17.2763929,29.1202346 C17.2763929,28.6363636 16.8695014,28.2514663 16.3856305,28.2514663 L16.3856305,28.2514663 Z M14.0102639,3.96994137 L14.0102639,3.96994137 L14.032258,3.96994137 C14.3401759,3.96994137 14.6370967,3.99193551 14.9340176,4.01392963 L14.9340176,0.912756608 C14.9340176,0.406891517 14.516129,0 13.9992668,0 C13.4824047,0 13.0645161,0.406891485 13.0645161,0.912756608 L13.0645161,4.01392963 C13.3614369,3.98093842 13.6693548,3.96994137 13.9662756,3.96994137 L14.0102639,3.96994137 L14.0102639,3.96994137 Z M21.5542522,6.90615837 L21.5542522,6.90615837 L23.9076246,4.59677421 C24.2705278,4.24486804 24.2705278,3.66202349 23.9076246,3.29912026 C23.5447214,2.93621704 22.9508797,2.93621704 22.5879765,3.29912026 L20.2675953,5.57551322 C20.7294721,5.98240471 21.1583577,6.4222874 21.5542522,6.90615837 L21.5542522,6.90615837 Z M22.0381232,19.5967742 C21.6532258,20.1466276 21.2573314,20.6085044 20.872434,21.03739 L22.5769795,22.7089443 C22.9398827,23.0608505 23.5337243,23.0608505 23.8966276,22.7089443 C24.2595308,22.3460411 24.2595308,21.7741936 23.8966276,21.4112903 L22.0381232,19.5967742 L22.0381232,19.5967742 Z M16.3856305,26.0410557 L11.6348973,26.0410557 C11.1400293,26.0410557 10.7441349,26.4259531 10.7441349,26.9208211 C10.7441349,27.4046921 11.1400293,27.7895894 11.6348973,27.7895894 L16.3856305,27.7895894 C16.8804985,27.7895894 17.2763929,27.393695 17.2763929,26.9208211 C17.2763929,26.4259531 16.8695014,26.0410557 16.3856305,26.0410557 L16.3856305,26.0410557 Z M27.07478,12.0967742 L27.07478,12.0967742 L23.7536656,12.0967742 C23.808651,12.5256598 23.8416422,12.9545455 23.8416422,13.3944281 C23.8416422,13.5703812 23.8416422,13.7463343 23.8306451,13.9222874 L27.07478,13.9222874 C27.5916422,13.9222874 28.0095307,13.5153959 28.0095307,13.0095308 C27.9985337,12.5036657 27.5916422,12.0967742 27.07478,12.0967742 L27.07478,12.0967742 Z M22.5329912,13.3944281 L22.5329912,13.3944281 C22.5329912,11.5029326 21.8951613,9.75439883 20.8064516,8.34677419 C19.8607038,7.11510264 18.5630499,6.14736069 17.0674487,5.58651025 L17.0784457,5.54252199 L16.4406158,5.35557183 C15.9457478,5.21260997 15.4288856,5.11363636 14.9120235,5.05865101 L14.835044,5.04765396 L14.835044,5.04765396 L14.835044,5.04765396 C14.5821115,5.02565981 14.3181818,5.0036657 14.0322581,5.0036657 L13.9882698,5.0036657 C13.7133432,5.0036657 13.4494136,5.02565984 13.1854839,5.04765396 L13.1854839,5.04765396 L13.1085045,5.05865101 C12.5916423,5.11363636 12.0747801,5.21260997 11.5799121,5.35557183 L10.9640763,5.5315249 L10.9750734,5.57551316 C9.46847513,6.14736066 8.17082118,7.11510261 7.21407632,8.34677416 C6.1363637,9.7543988 5.48753674,11.5029325 5.48753674,13.3944281 C5.48753674,14.7580645 5.72947221,15.8687683 6.10337253,16.7925219 C6.66422297,18.1781524 7.51099717,19.1129032 8.20381242,19.8277126 C8.5447215,20.1796187 8.85263941,20.4875366 9.05058662,20.7404692 C9.25953089,21.0043988 9.3585045,21.202346 9.3914957,21.356305 C9.54545466,22.1370968 9.55645171,23.1158357 9.55645171,23.3577712 L9.55645171,23.4347507 C9.55645171,24.5564516 10.4802054,25.4582111 11.6239004,25.4582111 L13.2294723,25.4582111 L13.2294723,17.5403225 L10.9200881,15.2419354 C10.6341643,14.9670088 10.6341643,14.5051319 10.9200881,14.2302052 C11.2060119,13.9552786 11.6568916,13.9552786 11.9318183,14.2302052 L13.9442817,16.2316715 L15.956745,14.2302052 C16.2426688,13.9552786 16.6935485,13.9552786 16.9684752,14.2302052 C17.254399,14.5051319 17.254399,14.9670087 16.9684752,15.2419354 L14.659091,17.5403225 L14.659091,25.447214 L16.3966277,25.447214 C17.5403227,25.447214 18.4640764,24.5344574 18.4640764,23.4237536 L18.4640764,23.3577712 C18.4640764,23.1158358 18.4750735,22.1260997 18.6290324,21.356305 C18.6510266,21.2463343 18.6950148,21.1253665 18.7939884,20.9714076 C18.9589444,20.707478 19.2668623,20.3775659 19.6517597,19.9926686 C20.2236072,19.3988269 20.9494136,18.6510263 21.5322582,17.5953079 C22.1151026,16.5505865 22.5329912,15.1759531 22.5329912,13.3944281 L22.5329912,13.3944281 Z" id="形状"></path>
                    </g>
                    <rect id="矩形" x="0" y="0" width="30" height="30"></rect>
                </g>
            </g>
            <g id="1920/产品/插图备份-2" transform="translate(348.000000, 19.000000)">
                <path d="M131.368738,3.66425595 C129.472638,1.35636011 126.538747,0.00297664984 123.426376,0 L0,0 L30.7105987,39.5646374 C32.8844454,42.3646727 32.9075074,46.2541618 30.7677524,49.0799947 L0,90 L125.193128,89.9196305 C127.187492,89.9196305 129.066546,89.0415188 130.262763,87.549225 L161.961018,48.0084008 C163.665603,45.8810884 163.647554,42.9540493 161.915897,40.8465813 L131.368738,3.66425595 Z" id="Fill-1" stroke="#FFFFFF" stroke-width="4" fill="#EFF3F9"></path>
                <text id="Development" font-family="PingFangSC-Regular, PingFang SC" font-size="12" font-weight="normal" fill="#475569">
                    <tspan x="45.826" y="28.0003">Development</tspan>
                </text>
                <g id="图标/git" transform="translate(67.000000, 46.000300)">
                    <g id="B点开发申请流程-03" transform="translate(0.000000, 3.000000)" fill="#A7B3C5" fill-rule="nonzero">
                        <path d="M30,4.82142857 L30,2.94642858 C30,1.33928572 28.6607143,0 27.0535714,0 L2.94642858,0 C1.33928572,0 0,1.33928572 0,2.94642858 L0,4.82142857 L30,4.82142857 Z M0,6.96428572 L0,22.3928571 C0,24 1.33928572,25.3392857 2.94642858,25.3392857 L27.0535714,25.3392857 C28.6607143,25.3392857 30,24 30,22.3928571 L30,6.96428572 L0,6.96428572 Z M9.42857144,18.2678571 C9.85714286,18.6964285 9.85714286,19.3392857 9.42857144,19.7678571 C9.21428572,19.9821429 8.94642859,20.0892857 8.67857142,20.0892857 C8.41071426,20.0892857 8.14285717,19.9821429 7.92857143,19.7678571 L3.96428573,15.8035714 C3.53571431,15.375 3.53571431,14.7321429 3.96428573,14.3035714 L7.92857143,10.3392857 C8.35714285,9.9107143 8.99999999,9.9107143 9.42857144,10.3392857 C9.85714286,10.7678571 9.85714286,11.4107143 9.42857144,11.8392857 L6.21428573,15.0535714 L9.42857144,18.2678571 L9.42857144,18.2678571 Z M17.3035714,10.7678571 L14.7857143,19.3392857 C14.625,19.8214286 14.1964286,20.0892857 13.7678572,20.0892857 C13.6607143,20.0892857 13.5535714,20.0892857 13.4464286,20.0357143 C12.8571429,19.875 12.5357143,19.2857143 12.6964286,18.6964286 L15.2142857,10.125 C15.375,9.53571429 15.9642857,9.21428572 16.5535714,9.375 C17.1428571,9.58928573 17.4642857,10.1785714 17.3035714,10.7678571 L17.3035714,10.7678571 Z M26.0357143,15.8035714 L22.0714286,19.7678571 C21.8571428,19.9821429 21.5892857,20.0892857 21.3214286,20.0892857 C21.0535714,20.0892857 20.7857143,19.9821429 20.5714286,19.7678571 C20.1428571,19.3392857 20.1428571,18.6964286 20.5714286,18.2678571 L23.7857143,15.0535714 L20.5714286,11.8392857 C20.1428571,11.4107143 20.1428571,10.7678571 20.5714286,10.3392857 C21,9.9107143 21.6428571,9.9107143 22.0714286,10.3392857 L26.0357143,14.3035714 C26.4642857,14.6785714 26.4642857,15.375 26.0357143,15.8035714 Z" id="形状"></path>
                    </g>
                    <rect id="矩形" x="0" y="0" width="30" height="30"></rect>
                </g>
            </g>
            <g id="1920/产品/插图备份-3" transform="translate(478.000000, 19.000000)">
                <path d="M194.847559,3.66425595 C192.951459,1.35636011 190.017568,0.00297664984 186.905197,0 L0,0 L30.7105987,39.5646374 C32.8844454,42.3646727 32.9075074,46.2541618 30.7677524,49.0799947 L0,90 L188.671949,89.9196305 C190.666313,89.9196305 192.545367,89.0415188 193.741584,87.549225 L225.439839,48.0084008 C227.144424,45.8810884 227.126375,42.9540493 225.394718,40.8465813 L194.847559,3.66425595 Z" id="Fill-1" stroke="#FFFFFF" stroke-width="4" fill="#EFF3F9"></path>
                <text id="Go-to-market" font-family="PingFangSC-Regular, PingFang SC" font-size="12" font-weight="normal" fill="#475569">
                    <tspan x="76.046" y="28.0003">Go to market</tspan>
                </text>
                <g id="图标/git" transform="translate(98.000000, 46.000300)">
                    <g id="地球" fill="#A7B3C5" fill-rule="nonzero">
                        <path d="M30,14.987847 C30,6.71029103 23.2843547,0 15.00015,0 C6.71579534,0 0,6.71029098 0,14.987847 C0,22.6342839 5.73040788,28.9428336 13.1341378,29.8607949 C13.5515081,29.9487471 14.0598667,30 14.6653356,30 C14.8353086,30 14.9992198,29.9910577 15.1575191,29.9748537 C23.3692212,29.8904724 30,23.2131897 30,14.987847 Z M27.8551708,15.1999104 C27.8120174,14.452092 27.7132265,13.7200875 27.5627896,13.0086982 C27.5761437,12.7546842 27.5797749,12.5140236 27.5729628,12.2902872 C27.7589908,13.1601164 27.8570922,14.0625338 27.8570922,14.987847 C27.8571214,15.0586948 27.8563111,15.1293326 27.8551708,15.1999104 Z M2.14290859,14.987847 C2.14290859,14.079398 2.23749812,13.1930647 2.41698411,12.3379092 C2.97221733,12.9316988 4.28089566,12.9176852 4.60004521,12.0304817 C5.17109336,12.3707974 5.93849278,12.4327631 5.93849278,13.1129745 C5.93849278,15.3579002 6.01843772,17.7646567 8.05829418,17.8018361 C8.1157321,17.8025863 9.19588913,18.2111692 9.70994949,19.5442852 C9.88769496,20.0050513 10.5907543,19.5442852 11.3617548,19.5442852 C11.746655,19.5442852 11.3617548,20.1926886 11.3617548,21.5948219 C11.3617548,22.9915239 14.3731644,25.1421058 14.3731644,25.1421058 C14.35921,26.0666388 14.3971719,26.8142172 14.4741159,27.4114577 C13.7943738,27.3989446 13.2215251,27.4890273 12.7714746,27.6422159 C6.73293068,26.5877501 2.14290859,21.3236436 2.14290859,14.987847 Z M18.1653576,27.4422755 C18.0987068,27.1159733 17.8071058,26.9372782 17.2750698,27.0771135 C17.6995823,25.2694279 17.9059567,24.2568227 18.7921631,23.487969 C20.0743732,22.3765489 18.9448508,21.1405975 17.9691264,21.2862542 C17.2000764,21.4023534 17.686078,20.3341142 16.9996739,20.2750293 C16.3132697,20.2175949 15.4168601,18.8523708 14.4289818,18.3826024 C13.9053185,18.1339298 13.3906879,17.4675218 12.5830759,17.4376643 C11.8672626,17.4099073 10.8211662,18.0428868 10.8211662,17.5549639 C10.8211662,15.9833478 10.6620266,14.8618752 10.6293164,14.4140124 C10.6029081,14.0541917 10.394103,14.2928118 11.3617549,14.3160677 C11.8883892,14.3301712 11.6311489,13.2583311 12.1524115,13.2164706 C12.6643713,13.1759603 13.8843119,13.6956913 14.1951189,13.4885491 C14.483869,13.2956605 16.3176211,18.301762 16.3176211,14.3160376 C16.3176211,13.8431185 16.0726847,13.0208813 16.3176211,12.5729884 C17.2863234,10.8030823 18.1932063,9.36061886 18.1117609,9.14960568 C18.0655465,9.03080574 17.1207017,8.93271101 16.3647058,9.18636493 C16.1095662,9.2715564 16.4458511,9.67113709 16.0794068,9.75647859 C14.7064484,10.0734185 13.49341,9.38630528 13.9181925,8.74045254 C14.3531782,8.07854574 15.92924,8.45171976 16.0674031,7.12385515 C16.1468979,6.3632535 16.2127684,5.48235149 16.2568522,4.82764652 C18.1046487,5.11658933 17.9012452,2.42971226 15.153738,2.14211977 C20.7121322,2.20714614 25.4222818,5.79662071 27.150701,10.7782961 C27.0632837,10.698566 26.961582,10.6501038 26.8441254,10.6382808 C26.0134362,8.56346793 23.9971371,10.0650163 24.6811105,11.8950575 C21.0163071,14.7120474 21.9543998,16.6767625 23.1584655,17.801836 C23.7920532,18.393255 24.3961116,19.2827092 24.7894143,19.9215102 C24.3613308,21.1696747 26.3667065,20.6698688 27.355725,18.551695 C26.0977025,22.9143444 22.5882575,26.3234735 18.1653576,27.4422755 Z" id="形状"></path>
                    </g>
                    <rect id="矩形" x="0" y="0" width="30" height="30"></rect>
                </g>
            </g>
            <g id="编组-106" transform="translate(816.000000, 0.000000)">
                <g id="编组-30备份" filter="url(#filter-1)" fill="#FFFFFF">
                    <circle id="椭圆形" cx="64" cy="64" r="64"></circle>
                </g>
                <circle id="椭圆形" fill="#EFF3F9" cx="63.5" cy="63.5" r="51.5"></circle>
                <circle id="椭圆形备份-34" fill="#3C82F5" cx="64" cy="64" r="36"></circle>
                <text id="End" font-family="PingFangSC-Medium, PingFang SC" font-size="14" font-weight="400" fill="#FFFFFF">
                    <tspan x="51.295" y="69">End</tspan>
                </text>
            </g>
            <g id="1920/产品/插图备份-4" transform="translate(673.000000, 19.000000)">
                <path d="M131.368738,3.66425595 C129.472638,1.35636011 126.538747,0.00297664984 123.426376,0 L0,0 L30.7105987,39.5646374 C32.8844454,42.3646727 32.9075074,46.2541618 30.7677524,49.0799947 L0,90 L125.193128,89.9196305 C127.187492,89.9196305 129.066546,89.0415188 130.262763,87.549225 L161.961018,48.0084008 C163.665603,45.8810884 163.647554,42.9540493 161.915897,40.8465813 L131.368738,3.66425595 Z" id="Fill-1" stroke="#FFFFFF" stroke-width="4" fill="#EFF3F9"></path>
                <text id="In-life" font-family="PingFangSC-Regular, PingFang SC" font-size="12" font-weight="normal" fill="#475569">
                    <tspan x="66.712" y="28.0003">In life</tspan>
                </text>
                <g id="图标/git" transform="translate(67.000000, 46.000300)">
                    <g id="设置" fill="#A7B3C5" fill-rule="nonzero">
                        <path d="M14.9997758,0 C6.71571729,0 0,6.71556779 0,14.9997758 C0,23.2839837 6.71571729,30 14.9997758,30 C23.2839837,30 29.9992525,23.2838342 29.9992525,14.9997758 C29.9992525,6.71571729 23.2838342,0 14.9997758,0 Z M25.2259103,16.0251548 C25.2259103,16.59084 24.7671133,17.1913572 24.2003817,17.1913572 L22.4024178,17.1913572 C22.2328917,17.556571 21.9944488,18.3154023 21.6873882,18.85672 L22.9594323,20.0558111 C23.3605246,20.4569033 23.3644114,21.1058566 22.9645151,21.506052 L21.5233933,22.9555455 C21.1230485,23.3557408 20.4926324,23.3557408 20.0916896,22.954798 L18.8571685,21.6849963 C18.3155518,21.9922064 17.556272,22.2328916 17.1910583,22.4024178 L17.1910583,24.2003817 C17.1910583,24.7675618 16.590242,25.2263588 16.0245569,25.2263588 L13.9743967,25.2263588 C13.4087115,25.2263588 12.8083437,24.7675618 12.8083437,24.2008302 L12.8083437,22.4028663 C12.44313,22.2333401 11.6837007,21.9948973 11.1425325,21.6876872 L9.94344144,22.9597313 C9.54249861,23.3608236 8.89309685,23.36486 8.49320051,22.9649636 L7.04370703,21.5238418 C6.64336219,21.1234969 6.64336219,20.4930809 7.04445451,20.0921381 L8.31440572,18.857318 C8.00764412,18.3160003 7.76695884,17.5567205 7.59743268,17.1915067 L5.79931931,17.1915067 C5.23213922,17.1915067 4.77334222,16.59084 4.77334222,16.0250053 L4.77334222,13.9746957 C4.77334222,13.4090105 5.23213919,12.8086427 5.79931928,12.8086427 L7.5968347,12.8086427 C7.76621136,12.443429 8.00450473,11.6839997 8.31201381,11.1428315 L7.03996969,9.94374044 C6.63887739,9.54234914 6.63528952,8.89339585 7.03518589,8.49349951 L8.47600869,7.04355756 C8.87590503,6.64336222 9.50706855,6.64336222 9.90816085,7.04430504 L11.1425325,8.31410675 C11.6838501,8.00704614 12.44313,7.76665986 12.8083437,7.5972832 L12.8083438,5.79931931 C12.8083438,5.2325877 13.4087115,4.77379072 13.9748452,4.77379072 L16.0247064,4.77379072 C16.5903915,4.77379072 17.1909088,5.2325877 17.1909088,5.79931931 L17.1909088,7.5969842 C17.5561225,7.76636086 18.3158508,8.00495323 18.8562715,8.31216331 L20.0553626,7.04041816 C20.4564549,6.63977435 21.1054082,6.63543902 21.5056035,7.03563437 L22.9552465,8.47645717 C23.3558903,8.87680201 23.3554418,9.50751703 22.954499,9.90860933 L21.6846973,11.142682 C21.9922063,11.6838502 22.2324432,12.4435785 22.4019693,12.8087922 L24.1999332,12.8087922 C24.7671133,12.8087922 25.2259103,13.40916 25.2259103,13.9752936 L25.2259103,16.0251548 Z" id="形状"></path>
                        <path d="M14.9996263,10.3871395 C12.4522491,10.3871395 10.387289,12.4520996 10.387289,14.9996263 C10.387289,17.5467044 12.4522492,19.6116645 14.9996263,19.6116645 C17.5474519,19.6116645 19.612113,17.5467044 19.612113,14.9996263 C19.6119635,12.4520996 17.5474519,10.3871395 14.9996263,10.3871395 Z" id="路径"></path>
                    </g>
                    <rect id="矩形" x="0" y="0" width="30" height="30"></rect>
                </g>
            </g>
            <g id="编组-104" transform="translate(116.000000, 121.000000)">
                <g id="矩形">
                    <use fill="black" fill-opacity="1" filter="url(#filter-3)" xlink:href="#path-2"></use>
                    <rect stroke="#D9E4F4" stroke-width="2" stroke-linejoin="square" fill="#FFFFFF" fill-rule="evenodd" x="1" y="26" width="106" height="102" rx="5"></rect>
                </g>
                <g id="编组-103" transform="translate(48.000000, 0.000000)" fill="#D9E4F4">
                    <g id="1920/辅助/页面切换选中">
                        <circle id="椭圆形" cx="6" cy="6" r="6"></circle>
                    </g>
                    <rect id="矩形" x="5" y="11" width="2" height="14"></rect>
                </g>
            </g>
            <text id="Validate-market-need" font-family="PingFangSC-Regular, PingFang SC" font-size="11" font-weight="normal" line-spacing="14" fill="#A7B3C5">
                <tspan x="148.616" y="178">Validate </tspan>
                <tspan x="137.275" y="192">market need</tspan>
            </text>
            <text id="Justify-investment" font-family="PingFangSC-Regular, PingFang SC" font-size="11" font-weight="normal" line-spacing="14" fill="#A7B3C5">
                <tspan x="152.367" y="213">Justify </tspan>
                <tspan x="141.51" y="227">investment</tspan>
            </text>
            <g id="编组-104备份" transform="translate(248.000000, 121.000000)">
                <g id="矩形">
                    <use fill="black" fill-opacity="1" filter="url(#filter-5)" xlink:href="#path-4"></use>
                    <rect stroke="#D9E4F4" stroke-width="2" stroke-linejoin="square" fill="#FFFFFF" fill-rule="evenodd" x="1" y="26" width="106" height="102" rx="5"></rect>
                </g>
                <g id="编组-103" transform="translate(48.000000, 0.000000)" fill="#D9E4F4">
                    <g id="1920/辅助/页面切换选中">
                        <circle id="椭圆形" cx="6" cy="6" r="6"></circle>
                    </g>
                    <rect id="矩形" x="5" y="11" width="2" height="14"></rect>
                </g>
                <text id="Validate-market-need" font-family="PingFangSC-Regular, PingFang SC" font-size="11" font-weight="normal" line-spacing="14" fill="#A7B3C5">
                    <tspan x="32.616" y="57">Validate </tspan>
                    <tspan x="21.275" y="71">market need</tspan>
                </text>
                <text id="Justify-investment" font-family="PingFangSC-Regular, PingFang SC" font-size="11" font-weight="normal" line-spacing="14" fill="#A7B3C5">
                    <tspan x="36.367" y="92">Justify </tspan>
                    <tspan x="25.51" y="106">investment</tspan>
                </text>
            </g>
            <g id="编组-104备份-2" transform="translate(381.000000, 121.000000)">
                <g id="矩形">
                    <use fill="black" fill-opacity="1" filter="url(#filter-7)" xlink:href="#path-6"></use>
                    <rect stroke="#D9E4F4" stroke-width="2" stroke-linejoin="square" fill="#FFFFFF" fill-rule="evenodd" x="1" y="26" width="106" height="102" rx="5"></rect>
                </g>
                <g id="编组-103" transform="translate(48.000000, 0.000000)" fill="#D9E4F4">
                    <g id="1920/辅助/页面切换选中">
                        <circle id="椭圆形" cx="6" cy="6" r="6"></circle>
                    </g>
                    <rect id="矩形" x="5" y="11" width="2" height="14"></rect>
                </g>
            </g>
            <text id="Validate-market-need" font-family="PingFangSC-Regular, PingFang SC" font-size="11" font-weight="normal" line-spacing="14" fill="#A7B3C5">
                <tspan x="413.616" y="178">Validate </tspan>
                <tspan x="402.275" y="192">market need</tspan>
            </text>
            <text id="Justify-investment" font-family="PingFangSC-Regular, PingFang SC" font-size="11" font-weight="normal" line-spacing="14" fill="#A7B3C5">
                <tspan x="417.367" y="213">Justify </tspan>
                <tspan x="406.51" y="227">investment</tspan>
            </text>
            <g id="编组-104备份-3" transform="translate(512.000000, 121.000000)">
                <g id="矩形">
                    <use fill="black" fill-opacity="1" filter="url(#filter-9)" xlink:href="#path-8"></use>
                    <rect stroke="#D9E4F4" stroke-width="2" stroke-linejoin="square" fill="#FFFFFF" fill-rule="evenodd" x="1" y="26" width="131" height="102" rx="5"></rect>
                </g>
                <g id="编组-103" transform="translate(73.000000, 0.000000)" fill="#D9E4F4">
                    <g id="1920/辅助/页面切换选中">
                        <circle id="椭圆形" cx="6" cy="6" r="6"></circle>
                    </g>
                    <rect id="矩形" x="5" y="11" width="2" height="14"></rect>
                </g>
            </g>
            <text id="Validate-market-need" font-family="PingFangSC-Regular, PingFang SC" font-size="11" font-weight="normal" line-spacing="14" fill="#A7B3C5">
                <tspan x="557.616" y="178">Validate </tspan>
                <tspan x="546.275" y="192">market need</tspan>
            </text>
            <text id="Justify-investment" font-family="PingFangSC-Regular, PingFang SC" font-size="11" font-weight="normal" line-spacing="14" fill="#A7B3C5">
                <tspan x="561.367" y="213">Justify </tspan>
                <tspan x="550.51" y="227">investment</tspan>
            </text>
            <g id="编组-104备份-4" transform="translate(701.000000, 121.000000)">
                <g id="矩形">
                    <use fill="black" fill-opacity="1" filter="url(#filter-11)" xlink:href="#path-10"></use>
                    <rect stroke="#D9E4F4" stroke-width="2" stroke-linejoin="square" fill="#FFFFFF" fill-rule="evenodd" x="1" y="26" width="106" height="102" rx="5"></rect>
                </g>
                <g id="编组-103" transform="translate(48.000000, 0.000000)" fill="#D9E4F4">
                    <g id="1920/辅助/页面切换选中">
                        <circle id="椭圆形" cx="6" cy="6" r="6"></circle>
                    </g>
                    <rect id="矩形" x="5" y="11" width="2" height="14"></rect>
                </g>
            </g>
            <text id="Validate-market-need" font-family="PingFangSC-Regular, PingFang SC" font-size="11" font-weight="normal" line-spacing="14" fill="#A7B3C5">
                <tspan x="735.616" y="178">Validate </tspan>
                <tspan x="724.275" y="192">market need</tspan>
            </text>
            <text id="Justify-investment" font-family="PingFangSC-Regular, PingFang SC" font-size="11" font-weight="normal" line-spacing="14" fill="#A7B3C5">
                <tspan x="739.367" y="213">Justify </tspan>
                <tspan x="728.51" y="227">investment</tspan>
            </text>
            <path d="M500,200 L500,317.249863 C500,338.347496 490.509622,338.980425 469.677929,338.999413 L71.8768316,339 C58.5550733,339 58.0222029,333.860761 58.0008881,325.403676 L58,216.97434 C58,207.132568 62.2338885,200 74.3219196,200 L101.603,199.999224 L101.603337,202.300325 L76.1742099,202.300325 C64.1955727,202.300325 60,209.212134 60,218.749295 L60.0008801,324.063867 C60.022002,334.028166 60.55005,336.99815 73.7512494,336.99815 L466.004686,336.99815 C466.242723,336.99815 466.479165,336.998199 466.714021,336.998274 L470.118908,336.998575 C490.723699,336.977587 497.681694,336.194489 498,315.921199 L498,199.999224 L500,200 Z" id="形状结合" fill="#3C82F5"></path>
            <g id="编组-105" transform="translate(177.000000, 193.000000)">
                <g id="1920/按钮/长按钮A" transform="translate(0.000000, 73.000000)">
                    <rect id="矩形备份-4" fill="#3C82F5" x="0" y="0" width="120" height="44" rx="5"></rect>
                    <text id="Investigate-further？" font-family="PingFangSC-Regular, PingFang SC" font-size="12" font-weight="normal" line-spacing="14" fill="#FFFFFF">
                        <tspan x="29.582" y="20.576">Investigate</tspan>
                        <tspan x="34.862" y="34.576">further？</tspan>
                    </text>
                </g>
                <rect id="矩形" fill="#3C82F5" transform="translate(59.778175, 7.778175) rotate(-45.000000) translate(-59.778175, -7.778175) " x="54.2781746" y="2.27817459" width="11" height="11" rx="2"></rect>
                <rect id="矩形" fill="#3C82F5" x="59" y="14" width="2" height="59"></rect>
            </g>
            <g id="编组-105备份" transform="translate(308.000000, 207.000000)">
                <g id="1920/按钮/长按钮A" transform="translate(0.000000, 59.000000)">
                    <rect id="矩形备份-4" fill="#3C82F5" x="0" y="0" width="120" height="44" rx="5"></rect>
                    <text id="Start-development？" font-family="PingFangSC-Regular, PingFang SC" font-size="12" font-weight="normal" fill="#FFFFFF">
                        <tspan x="46.404" y="18">Start</tspan>
                        <tspan x="18.546" y="35">development？</tspan>
                    </text>
                </g>
                <rect id="矩形" fill="#3C82F5" x="59" y="0" width="2" height="59"></rect>
            </g>
            <path d="M823,223 L823,340.82515 C823,363.730093 805.3582,362.036719 767.348858,362.000561 L81.9861976,362 C58.7195859,362 58.0215876,356.753136 58.0006476,348.138314 L58,239.97434 C58,237.119392 58.6158292,234.492422 60.0002389,232.201404 L60.0006442,346.750201 C60.0214746,356.965969 60.7158185,359.99815 83.8606154,359.99815 L765.714307,359.99881 C806.089573,360.041503 821.028526,362.066236 821.028526,340.080383 C821.345874,332.616392 821.507722,317.574162 821.514069,294.953694 L821.514069,292.145966 C821.509062,273.813802 821.40729,250.76582 821.208752,223.002019 L823,223 Z" id="形状结合" fill="#3C82F5"></path>
            <g id="编组-105备份-2" transform="translate(439.000000, 207.000000)">
                <g id="1920/按钮/长按钮A" transform="translate(0.000000, 59.000000)">
                    <rect id="矩形备份-4" fill="#3C82F5" x="0" y="0" width="133" height="44" rx="5"></rect>
                    <text id="Build-more？" font-family="PingFangSC-Regular, PingFang SC" font-size="12" font-weight="normal" fill="#FFFFFF">
                        <tspan x="29.952" y="27">Build more？</tspan>
                    </text>
                </g>
                <rect id="矩形" fill="#3C82F5" x="59" y="0" width="2" height="59"></rect>
            </g>
            <g id="编组-105备份-3" transform="translate(583.000000, 207.000000)">
                <g id="1920/按钮/长按钮A" transform="translate(0.000000, 59.000000)">
                    <rect id="矩形备份-4" fill="#3C82F5" x="0" y="0" width="134" height="44" rx="5"></rect>
                    <text id="Ready-to-launch？" font-family="PingFangSC-Regular, PingFang SC" font-size="12" font-weight="normal" fill="#FFFFFF">
                        <tspan x="16.03" y="27">Ready to launch？</tspan>
                    </text>
                </g>
                <rect id="矩形" fill="#3C82F5" x="73" y="0" width="2" height="59"></rect>
            </g>
            <g id="编组-105备份-4" transform="translate(728.000000, 207.000000)">
                <g id="1920/按钮/长按钮A" transform="translate(0.000000, 59.000000)">
                    <rect id="矩形备份-4" fill="#3C82F5" x="0" y="0" width="154" height="44" rx="5"></rect>
                    <text id="Develop-next-version" font-family="PingFangSC-Regular, PingFang SC" font-size="12" font-weight="normal" fill="#FFFFFF">
                        <tspan x="16.058" y="27">Develop next version？</tspan>
                    </text>
                </g>
                <rect id="矩形" fill="#3C82F5" x="93" y="0" width="2" height="59"></rect>
            </g>
            <g id="编组-30" filter="url(#filter-12)" fill="#FFFFFF">
                <circle id="椭圆形" cx="64" cy="64" r="64"></circle>
            </g>
            <path d="M107.394427,193.288854 L115.276393,209.052786 C115.523382,209.546765 115.323158,210.147438 114.82918,210.394427 C114.690324,210.463855 114.537211,210.5 114.381966,210.5 L98.618034,210.5 C98.0657492,210.5 97.618034,210.052285 97.618034,209.5 C97.618034,209.344755 97.6541791,209.191642 97.7236068,209.052786 L105.605573,193.288854 C105.852562,192.794876 106.453235,192.594652 106.947214,192.841641 C107.140741,192.938404 107.297663,193.095327 107.394427,193.288854 Z" id="三角形" fill="#3C82F5" transform="translate(106.500000, 201.000000) rotate(-270.000000) translate(-106.500000, -201.000000) "></path>
            <rect id="矩形" fill="#3C82F5" transform="translate(367.778175, 200.778175) rotate(-45.000000) translate(-367.778175, -200.778175) " x="362.278175" y="195.278175" width="11" height="11" rx="2"></rect>
            <rect id="矩形" fill="#3C82F5" transform="translate(498.778175, 200.778175) rotate(-45.000000) translate(-498.778175, -200.778175) " x="493.278175" y="195.278175" width="11" height="11" rx="2"></rect>
            <rect id="矩形" fill="#3C82F5" transform="translate(656.778175, 200.778175) rotate(-45.000000) translate(-656.778175, -200.778175) " x="651.278175" y="195.278175" width="11" height="11" rx="2"></rect>
            <rect id="矩形" fill="#3C82F5" transform="translate(821.778175, 200.778175) rotate(-45.000000) translate(-821.778175, -200.778175) " x="816.278175" y="195.278175" width="11" height="11" rx="2"></rect>
            <path d="M301.394427,330.288854 L309.276393,346.052786 C309.523382,346.546765 309.323158,347.147438 308.82918,347.394427 C308.690324,347.463855 308.537211,347.5 308.381966,347.5 L292.618034,347.5 C292.065749,347.5 291.618034,347.052285 291.618034,346.5 C291.618034,346.344755 291.654179,346.191642 291.723607,346.052786 L299.605573,330.288854 C299.852562,329.794876 300.453235,329.594652 300.947214,329.841641 C301.140741,329.938404 301.297663,330.095327 301.394427,330.288854 Z" id="三角形" fill="#3C82F5" transform="translate(300.500000, 338.000000) scale(-1, 1) rotate(-270.000000) translate(-300.500000, -338.000000) "></path>
            <path d="M579.394427,352.788854 L587.276393,368.552786 C587.523382,369.046765 587.323158,369.647438 586.82918,369.894427 C586.690324,369.963855 586.537211,370 586.381966,370 L570.618034,370 C570.065749,370 569.618034,369.552285 569.618034,369 C569.618034,368.844755 569.654179,368.691642 569.723607,368.552786 L577.605573,352.788854 C577.852562,352.294876 578.453235,352.094652 578.947214,352.341641 C579.140741,352.438404 579.297663,352.595327 579.394427,352.788854 Z" id="三角形" fill="#3C82F5" transform="translate(578.500000, 360.500000) scale(-1, 1) rotate(-270.000000) translate(-578.500000, -360.500000) "></path>
            <circle id="椭圆形" fill="#EFF3F9" cx="64.5" cy="64.5" r="51.5"></circle>
            <circle id="椭圆形" fill="#3C82F5" cx="64" cy="64" r="36"></circle>
            <text id="Start" font-family="PingFangSC-Medium, PingFang SC" font-size="14" font-weight="400" fill="#FFFFFF">
                <tspan x="47.844" y="69">Start</tspan>
            </text>
        </g>
    </g>
</svg>