<?xml version="1.0" encoding="UTF-8"?>
<svg width="129px" height="36px" viewBox="0 0 129 36" version="1.1" xmlns="http://www.w3.org/2000/svg" xmlns:xlink="http://www.w3.org/1999/xlink">
    <title>logo备份</title>
    <defs>
        <linearGradient x1="104.753787%" y1="50.0026704%" x2="-13.4067675%" y2="50.1970682%" id="linearGradient-1">
            <stop stop-color="#A990E5" offset="0%"></stop>
            <stop stop-color="#56B4DA" offset="54.124169%"></stop>
            <stop stop-color="#3C82F5" offset="100%"></stop>
        </linearGradient>
    </defs>
    <g id="控件" stroke="none" stroke-width="1" fill="none" fill-rule="evenodd">
        <g id="logo备份" fill-rule="nonzero">
            <g id="front-logo-onchain" fill="#3C82F5">
                <path d="M12.483,0 L24.958,8.01800001 L24.971,13.252 L24.972,13.252 L24.972,13.615 L22.816,14.998 L24.986,16.392 L24.998,21.626 L25,21.626 L25,21.989 L12.517,30 L0.027,21.989 L0.027,16.392 L2.20299999,14.993 L0,13.573 L0,8.019 L12.483,0 Z M3.978,19.363 L0.306,21.76 L0.306,21.804 L12.384,29.559 L12.404,24.863 L3.978,19.363 L3.978,19.363 Z M21.049,19.371 L12.67,24.837 L12.65,29.559 L24.735,21.795 L24.734,21.778 L24.721,21.77 L21.049,19.371 L21.049,19.371 Z M18.548,17.737 L12.49,21.626 L6.46299999,17.74 L4.25000001,19.185 L12.517,24.582 L20.777,19.193 L18.548,17.737 L18.548,17.737 Z M24.721,16.975 L21.325,19.191 L24.721,21.407 L24.721,16.975 Z M0.30699999,16.967 L0.306,21.398 L3.702,19.183 L0.30699999,16.967 Z M10.38,15.183 L6.73899999,17.56 L12.364,21.189 L12.376,16.485 L10.38,15.183 L10.38,15.183 Z M14.624,15.173 L12.642,16.468 L12.63,21.18 L18.271,17.556 L14.624,15.173 L14.624,15.173 Z M22.537,15.176 L18.825,17.559 L21.053,19.013 L24.721,16.62 L24.721,16.578 L22.537,15.176 L22.537,15.176 Z M2.481,15.172 L0.29199999,16.578 L0.29199999,16.601 L0.30699999,16.611 L3.97400001,19.005 L6.18699999,17.561 L2.481,15.172 L2.481,15.172 Z M6.45399999,12.621 L2.76,14.993 L6.462,17.382 L10.107,15.004 L6.45399999,12.621 L6.45399999,12.621 Z M18.545,12.614 L14.898,14.995 L18.548,17.378 L22.256,14.996 L18.545,12.614 L18.545,12.614 Z M12.51,13.792 L10.653,15.005 L12.497,16.208 L14.352,14.995 L12.51,13.792 L12.51,13.792 Z M12.37,8.82099999 L6.72800001,12.444 L10.379,14.826 L12.39,13.514 L12.37,8.82099999 Z M12.636,8.82099999 L12.656,13.531 L14.625,14.817 L18.27,12.438 L12.636,8.82099999 L12.636,8.82099999 Z M21.022,10.997 L18.822,12.433 L22.534,14.817 L24.707,13.421 L24.707,13.404 L24.693,13.396 L21.022,10.997 L21.022,10.997 Z M3.951,10.988 L0.27800001,13.386 L0.27800001,13.392 L2.48199999,14.814 L6.17600001,12.44 L3.951,10.988 L3.951,10.988 Z M24.693,8.601 L21.298,10.817 L24.693,13.033 L24.693,8.601 Z M0.279,8.59299999 L0.27800001,13.024 L3.675,10.808 L0.279,8.59299999 Z M12.483,5.418 L4.22300001,10.81 L6.45099999,12.263 L12.503,8.37399999 L18.548,12.257 L20.75,10.819 L12.483,5.41899999 L12.483,5.418 Z M12.616,0.441 L12.629,5.15799999 L21.026,10.639 L24.693,8.24600001 L24.693,8.20400001 L12.616,0.441 Z M12.35,0.44000001 L0.264,8.20400001 L0.264,8.22699999 L0.279,8.23700001 L3.94700001,10.63 L12.363,5.13999999 L12.35,0.44000001 Z" id="形状"></path>
                <path d="M24.735,13.4948273 L12.636,21.189 L12.5135,16.4190159 L24.735,8.3952837 L24.735,13.4948273 Z M12.4865,13.5543308 L0,21.698101 L0,16.5622616 L12.4865,8.601 L12.4865,13.5543308 Z" id="形状"></path>
            </g>
            <path d="M56.1218736,9.71913853 C56.1218736,9.29112351 56.8440098,8.7750122 57.3673838,8.72182199 C57.6919955,8.6894092 58.2143707,8.72182199 58.5120147,8.94123163 C58.8086598,9.15981018 58.8526073,9.33184728 58.8526073,9.55873679 L58.8526073,19 L63.9894629,18.9626006 L63.9894629,9.90945976 C63.9894629,8.90133897 64.2391643,7.55246835 62.3074748,6.57676035 C59.8564066,5.33925675 56.9488844,6.34903975 56.1218736,7.2208606 L56.2696967,6.02823625 L51,6.03654721 L51,18.9601073 L56.1218736,18.9526275 L56.1218736,9.71913853 L56.1218736,9.71913853 Z M86.0512768,0.000924727264 L86.0512768,5.88577409 C86.8857091,4.91482942 89.8203311,3.79223244 92.2923873,5.16912446 C94.2404039,6.25473306 93.9894695,7.7555361 93.9894695,8.87720835 L93.9894695,18.9500657 L88.806516,18.9916776 L88.806516,8.48698109 C88.806516,8.23453547 88.7621741,8.04312067 88.4618591,7.79992214 C88.1625519,7.55672361 87.6354889,7.51973525 87.3079642,7.55672361 C86.7788857,7.61498029 86.0512768,8.1892247 86.0512768,8.66544995 L86.0512768,18.9389692 L80.8834398,18.9482163 L80.882432,18.9352704 L73.7847183,19 L73.6567317,19 C68.0081891,19 65,16.0215116 65,9.52542951 C65,3.14031245 67.9064044,0.153501746 73.3715332,0.054557852 L73.6567317,0.0517837244 L74.2130199,0.0517837244 L74.2130199,0.0554825522 L74.5627156,0.0591814071 C75.8576981,0.0850732557 77.1395797,0.174770067 78.4083603,0.329196485 L78.4083603,5.02486983 C77.6080024,4.95112263 76.805481,4.89870038 76.001809,4.86766926 C75.2328816,4.83345502 74.5445757,4.80663845 73.9378991,4.78814425 L73.877433,4.78814425 L73.8310756,4.78444543 L73.6013044,4.77797247 L73.389673,4.77149949 L73.3161059,4.77427362 C71.3832059,4.85842215 70.3562897,6.34073102 70.3562897,9.42741035 C70.3562897,12.325449 71.2622737,13.7938872 72.9724568,14.0306128 L73.1407542,14.0500316 L73.1407542,14.0657517 L80.882432,14.064827 L80.882432,0 L86.0512768,0 L86.0512768,0.000924727264 Z M121.122522,9.71913853 C121.122522,9.29112351 121.84361,8.7750122 122.367947,8.72182199 C122.691537,8.6894092 123.214876,8.72182199 123.5115,8.94123163 C123.808125,9.15981018 123.85207,9.33184728 123.85207,9.55873679 L123.85207,19 L128.989572,18.9626006 L128.989572,9.90945976 C128.989572,8.90133897 129.238258,7.55246835 127.306701,6.57676035 C124.856799,5.33925675 121.948477,6.34903975 121.122522,7.2208606 L121.269336,6.02823625 L116,6.03654721 L116,18.9601073 L121.122522,18.9526275 L121.122522,9.71913853 L121.122522,9.71913853 Z M102.998949,14.0198242 C100.822957,13.8824204 100.11865,14.4765988 100.018785,15.2657419 C99.9178699,16.054885 100.201695,16.8885916 101.405324,17 C102.225263,17 102.757172,16.8041068 103,16.4123205 L102.998949,14.0198242 Z M115.015633,0.000936759004 L108.724798,0.000936759004 L108.724798,4 L115.015633,4 L115.015633,0.000936759004 Z M115,6 L115,19 L108.75,19 L108.75,18.977 L102.101746,18.977105 C100.608521,18.9915204 99.5840454,19 99.0283203,19 C98.3078003,19 97.6824951,18.932163 97.1533203,18.8015768 C96.625061,18.6701426 95,18.0918323 95,15.6827713 C95,13.079527 96.222229,11.9593687 97.2952271,11.5447152 C98.2794189,11.164828 99.9658203,11.1334534 100.240479,11.1309095 L101.967163,11.1309095 L101.967163,10.5483594 L101.966248,10.5229205 C101.966248,10.152361 101.747437,9.90560394 101.31073,9.78264941 C100.860196,9.75080714 100.408509,9.73496688 99.956665,9.73516351 C98.8754272,9.73516351 97.7960205,9.82250362 96.7202759,9.99548796 L96.4657593,6.24664646 C98.5202026,5.98377815 100.765991,5.93120447 103.202209,6.08807752 L102.636414,6.05585494 C103.399963,6.08553363 104.094849,6.13471544 104.484863,6.21018409 C105.284119,6.3653612 105.892029,6.65960414 106.307678,7.09206491 C106.724243,7.52537365 106.976929,8.12149119 107.067566,8.87872157 C107.153625,9.59270586 107.198486,10.6764017 107.203064,12.1298092 L107.203064,15.3554579 L108.75,15.356 L108.75,6 L115,6 Z M42.5754013,0 C47.5183726,0 50,2.98740972 50,9.5 C50,16.0135175 47.5183726,19 42.5745194,19 C37.6333118,19 35,16.0144447 35,9.5009272 C35,2.98833693 37.6324299,0.00185439125 42.5754013,0.00185439125 Z M42.5306569,5 C40.5530414,5 39.5,6.57196971 39.5,10 C39.5,13.4280303 40.5530414,15 42.5306569,15 C44.5072993,15 45.5,13.4280303 45.5,10 C45.5,6.57196971 44.5072993,5 42.5306569,5 Z" id="形状" fill="#1D293B"></path>
            <text id="PLM-On-Cloud" fill="url(#linearGradient-1)" font-family="PingFangSC-Medium, PingFang SC" font-size="12" font-weight="400">
                <tspan x="41" y="32">PLM On Cloud</tspan>
            </text>
        </g>
    </g>
</svg>