<?xml version="1.0" encoding="UTF-8"?>
<svg width="222px" height="116px" viewBox="0 0 222 116" version="1.1" xmlns="http://www.w3.org/2000/svg" xmlns:xlink="http://www.w3.org/1999/xlink">
    <title>编组 84</title>
    <g id="秽土转生" stroke="none" stroke-width="1" fill="none" fill-rule="evenodd">
        <g id="编组-84" fill-rule="nonzero">
            <rect id="e9e5cf6b-8f55-43bf-8281-302b4fb1e9d5" fill="#E6E6E6" x="0" y="0" width="222" height="116"></rect>
            <rect id="e4e8a65e-8422-4898-a810-30d755c7dafc" fill="#3C82F5" x="0" y="0" width="222" height="13"></rect>
            <rect id="b6acd298-89f8-46a0-ab3e-c2f0533bc288" fill="#FFFFFF" x="6" y="17" width="211" height="93"></rect>
            <circle id="a2e6f9e4-3ad4-420f-8fe3-197d901d1e70" fill="#FFFFFF" cx="22.5" cy="6.5" r="2.5"></circle>
            <circle id="b303a717-eadc-4672-a419-54a1feb6afd8" fill="#FFFFFF" cx="30.5" cy="6.5" r="2.5"></circle>
            <circle id="b1ff2c46-8045-41fc-afe2-76f8fb520d89" fill="#FFFFFF" cx="12.5" cy="6.5" r="2.5"></circle>
            <path d="M113.587226,38 C112.67875,38.1330224 112,38.9882887 112,40 C112,41.0117113 112.67875,41.8669776 113.587226,42 L188.412774,42 C189.32125,41.8669776 190,41.0117113 190,40 C190,38.9882887 189.32125,38.1330224 188.412774,38 L113.587226,38 Z" id="路径" fill="#E6E6E6"></path>
            <path d="M113.587226,81 C112.67875,81.1330224 112,81.9882887 112,83 C112,84.0117113 112.67875,84.8669776 113.587226,85 L188.412774,85 C189.32125,84.8669776 190,84.0117113 190,83 C190,81.9882887 189.32125,81.1330224 188.412774,81 L113.587226,81 Z" id="路径" fill="#E6E6E6"></path>
            <path d="M112.615401,48 C111.690799,48.1330224 111,48.9882887 111,50 C111,51.0117113 111.690799,51.8669776 112.615401,52 L145.384599,52 C146.309201,51.8669776 147,51.0117113 147,50 C147,48.9882887 146.309201,48.1330224 145.384599,48 L112.615401,48 Z" id="路径" fill="#E6E6E6"></path>
            <path d="M113.58721,59 C112.678741,59.1330336 112,59.9882964 112,61 C112,62.0117036 112.678741,62.8669664 113.58721,63 L188.41279,63 C189.321259,62.8669664 190,62.0117036 190,61 C190,59.9882964 189.321259,59.1330336 188.41279,59 L113.58721,59 Z" id="路径" fill="#E6E6E6"></path>
            <path d="M112.615401,69 C111.690799,69.1330224 111,69.9882887 111,71 C111,72.0117113 111.690799,72.8669776 112.615401,73 L145.384599,73 C146.309201,72.8669776 147,72.0117113 147,71 C147,69.9882887 146.309201,69.1330224 145.384599,69 L112.615401,69 Z" id="路径" fill="#E6E6E6"></path>
            <path d="M70.2463706,82 C70.8722037,82.0016225 71.4511396,81.6210275 71.7646435,81.0018755 C72.0781475,80.3827234 72.0784723,79.6193124 71.7654953,78.9998121 C71.4525183,78.3803118 70.8739066,77.9990733 70.2480724,78 L34.7536294,78 C34.1277963,77.9983775 33.5488604,78.3789725 33.2353565,78.9981245 C32.9218525,79.6172766 32.9215277,80.3806876 33.2345047,81.0001879 C33.5474817,81.6196882 34.1260934,82.0009267 34.7519276,82 L70.2463706,82 Z" id="路径" fill="#E4E4E4"></path>
            <path d="M70.2532716,72 C71.2184865,71.9979532 72,71.1031235 72,70 C72,68.89688 71.2184865,68.0020503 70.2532716,68 L34.7539543,68 C34.1280052,67.9983775 33.5489621,68.3789728 33.2354001,68.9981254 C32.921838,69.617278 32.9215132,70.3806896 33.2345481,71.0001905 C33.5475831,71.6196914 34.126302,72.0009302 34.7522522,72 L70.2532716,72 Z" id="路径" fill="#E4E4E4"></path>
            <path d="M51.9998272,39 C56.4488474,39 60.4597913,41.6800162 62.1623615,45.7903733 C63.8649318,49.9007304 62.9238363,54.6319588 59.7779065,57.7778938 C56.6319767,60.9238287 51.9007498,61.864932 47.7903899,60.1623684 C43.6800301,58.4598049 41,54.4488655 41,49.9998452 L41,49.9998452 C41.0068548,43.9276471 45.9276291,39.0068647 51.9998272,39 Z" id="路径" fill="#3C82F5"></path>
        </g>
    </g>
</svg>